<svg xmlns="http://www.w3.org/2000/svg" viewBox="0 0 512 512" role="img" aria-label="Fulogi">
  <rect width="512" height="512" rx="112" fill="#0f172a"/>
  <path d="M164 166c0-17 14-31 31-31h122c17 0 31 14 31 31v180c0 27-22 49-49 49H213c-27 0-49-22-49-49V166Z" fill="#e2e8f0"/>
  <path d="M196 182h120v116H196z" fill="#0f172a"/>
  <path d="M211 214h90v16h-90zm0 34h90v16h-90zm0 34h60v16h-60z" fill="#38bdf8"/>
  <path d="M332 205h28c17 0 31 14 31 31v44c0 17-14 31-31 31h-28z" fill="#e2e8f0"/>
  <path d="M350 229h15v57h-15z" fill="#38bdf8"/>
</svg>
